<?xml version="1.0" encoding="UTF-8"?>
<svg version="1.1" xmlns="http://www.w3.org/2000/svg" width="1490" height="329">
<path d="M0 0 C491.7 0 983.4 0 1490 0 C1490 108.57 1490 217.14 1490 329 C998.3 329 506.6 329 0 329 C0 220.43 0 111.86 0 0 Z " fill="#0A0B09" transform="translate(0,0)"/>
<path d="M0 0 C28.71 0 57.42 0 87 0 C95.75314181 18.05335499 104.45722076 36.03735399 112.85546875 54.2421875 C115.99869082 61.02982431 119.23943702 67.76810593 122.5 74.5 C126.92044989 83.62767472 131.24856615 92.79239356 135.5 102 C140.83593212 113.552076 146.30932707 125.03190875 151.85546875 136.484375 C153.94291778 140.79702024 156.00751882 145.11937266 158.05078125 149.453125 C158.53788574 150.48332764 159.02499023 151.51353027 159.52685547 152.57495117 C160.42977896 154.48721749 161.3289074 156.40128323 162.22314453 158.31762695 C168.00663985 170.53847324 175.05004718 184.50215298 188.05859375 190.22265625 C195.27886509 192.13080233 204.54236972 192.56630742 211.5 189.5 C218.11860502 185.34686204 223.90083579 179.66982369 226 172 C226.44023523 167.48806992 226.40979649 162.99527178 226.38818359 158.46484375 C226.39225356 157.09587181 226.39759783 155.72690316 226.40411377 154.35794067 C226.41774276 150.65544135 226.41250715 146.95319396 226.40297651 143.25069046 C226.39535692 139.36755975 226.4024319 135.48444996 226.40713501 131.60131836 C226.41258588 125.08150376 226.40541854 118.56179127 226.39111328 112.04199219 C226.374788 104.51484081 226.38007699 96.98793325 226.3965925 89.46078777 C226.41022646 82.9866843 226.41211771 76.51265404 226.40427649 70.03854084 C226.39961045 66.17684752 226.39894557 62.31526863 226.40888596 58.45358276 C226.41758125 54.82224037 226.41148737 51.19121094 226.39420319 47.55990219 C226.38837398 45.59919408 226.39723199 43.63845936 226.40658569 41.67776489 C226.34186579 32.66929385 225.05051256 26.43222858 218.85546875 19.640625 C212.39987923 13.93252479 205.40245022 12.36010501 197 12 C197 8.04 197 4.08 197 0 C238.25 0 279.5 0 322 0 C322 3.96 322 7.92 322 12 C319.525 12.0928125 319.525 12.0928125 317 12.1875 C308.4640114 12.98638098 303.48745496 17.19882705 297.54296875 23.05859375 C292.20323034 29.77720131 292.56677802 36.13871632 292.59594727 44.38989258 C292.59023987 45.7554734 292.58327418 47.12104946 292.57514954 48.48661804 C292.5572401 52.18516527 292.55838269 55.88347494 292.56409192 59.58205247 C292.5671881 62.67575614 292.56108631 65.76941447 292.55505317 68.86311167 C292.5410158 76.16634802 292.54256164 83.46946739 292.55395508 90.77270508 C292.56542582 98.29132673 292.55137662 105.80959125 292.5245586 113.32816583 C292.50235638 119.79633995 292.49577466 126.26440234 292.50163502 132.73261184 C292.5049962 136.58995883 292.50264615 140.44707713 292.48538399 144.30439186 C292.46984531 147.93497298 292.47394607 151.5650282 292.49268913 155.19558907 C292.4980954 157.15116331 292.4839122 159.10676156 292.46899414 161.06228638 C292.53768312 169.31604259 293.76462443 175.52439713 298.640625 182.26953125 C305.88437952 189.21439299 312.0005524 191.44447513 322 192 C322 195.96 322 199.92 322 204 C239.17 204 156.34 204 71 204 C71 200.04 71 196.08 71 192 C73.041875 191.6596875 73.041875 191.6596875 75.125 191.3125 C80.615914 190.05398596 84.12546258 187.90232118 87.25390625 183.05859375 C90.31069165 177.10478525 90.90832317 171.58655157 90 165 C86.64612243 154.9373756 81.49969125 145.26394094 77.04223633 135.65185547 C75.80257066 132.97858796 74.56605264 130.30388209 73.33007812 127.62890625 C72.53924146 125.91918804 71.74823216 124.20954968 70.95703125 122.5 C70.58931107 121.7052124 70.22159088 120.9104248 69.84272766 120.09155273 C69.49864365 119.34977783 69.15455963 118.60800293 68.80004883 117.84375 C68.49980301 117.19599609 68.19955719 116.54824219 67.89021301 115.88085938 C66.95532361 113.90560684 65.98402968 111.95117472 65 110 C64.72027344 110.95519531 64.44054687 111.91039062 64.15234375 112.89453125 C57.43653377 134.92398971 43.58050812 146.04133861 24.65234375 157.6796875 C23.93763916 158.12062744 23.22293457 158.56156738 22.48657227 159.01586914 C21.11811754 159.85618167 19.74514023 160.6891906 18.36694336 161.51342773 C14.39202673 163.93748026 11.08359122 166.44603046 8 170 C7.2673531 173.82604492 7.76460969 175.54805061 9.5625 179 C15.99394532 186.91562501 22.09485353 189.46785729 32 192 C32 195.96 32 199.92 32 204 C1.64 204 -28.72 204 -60 204 C-60 200.04 -60 196.08 -60 192 C-58.700625 191.79375 -57.40125 191.5875 -56.0625 191.375 C-43.76115213 188.59852023 -34.89613774 178.14735954 -28.19018555 168.06152344 C-15.94404073 148.58990238 -7.31785971 126.45746196 1.93048096 105.45683289 C6.03120177 96.14787228 10.2205115 86.88250677 14.46270752 77.63720703 C15.48565705 75.40628021 16.50573492 73.17406309 17.52490234 70.94140625 C20.25563799 64.96289168 22.99379676 58.99057609 25.81640625 53.0546875 C26.20699219 52.2188916 26.59757813 51.3830957 27 50.52197266 C27.67191703 49.0851942 28.35656037 47.65423945 29.05859375 46.23193359 C31.1276421 41.75809109 31.1728026 38.7563661 30 34 C26.78178354 25.26961349 22.19792865 17.96687732 13.6171875 13.859375 C10.755561 12.91973645 8.18803084 12.59190584 5.1875 12.375 C3.475625 12.25125 1.76375 12.1275 0 12 C0 8.04 0 4.08 0 0 Z " fill="#C65C89" transform="translate(865,57)"/>
<path d="M0 0 C0.81984375 0.67933594 1.6396875 1.35867187 2.484375 2.05859375 C3.34546875 2.76886719 4.2065625 3.47914062 5.09375 4.2109375 C23.02228686 19.66750943 32.84520806 39.99414383 36.484375 63.05859375 C36.67 63.98800781 36.855625 64.91742188 37.046875 65.875 C40.79928887 93.18051167 35.5433357 122.40324534 19.1796875 144.84814453 C1.48868245 167.98013313 -23.35360441 179.74488299 -51.515625 185.05859375 C-52.88775146 185.32555054 -52.88775146 185.32555054 -54.28759766 185.59790039 C-57.94882358 186.12041841 -61.54088963 186.22059086 -65.23046875 186.2265625 C-66.32966393 186.2315551 -66.32966393 186.2315551 -67.45106506 186.23664856 C-69.00000385 186.24169216 -70.54895341 186.24405768 -72.09790039 186.24389648 C-74.41507031 186.24605825 -76.7317438 186.26417214 -79.04882812 186.28320312 C-92.13633559 186.33464505 -104.87777138 185.35371714 -117.453125 181.43359375 C-118.71298218 181.04554565 -118.71298218 181.04554565 -119.99829102 180.6496582 C-144.50283484 172.77212102 -166.34209781 157.05170268 -178.515625 134.05859375 C-182.88039701 125.40095004 -186.48308599 116.56286069 -188.515625 107.05859375 C-188.71929687 106.22328125 -188.92296875 105.38796875 -189.1328125 104.52734375 C-194.78840503 77.56643687 -189.68175808 47.58157223 -175.515625 24.05859375 C-173.04626731 20.52365957 -170.36878118 17.28652892 -167.515625 14.05859375 C-167.0721875 13.47335938 -166.62875 12.888125 -166.171875 12.28515625 C-149.59835783 -9.24020446 -120.24422492 -18.57962763 -94.53125 -22.25 C-62.62146402 -26.24127195 -25.89372793 -20.12648853 0 0 Z " fill="#C75C8A" transform="translate(558.515625,76.94140625)"/>
<path d="M0 0 C32.34 0 64.68 0 98 0 C117.17484177 42.61075949 117.17484177 42.61075949 125.80859375 62.66796875 C131.37077898 75.5196275 137.19759796 88.25546182 143 101 C145.52204295 98.47795705 146.2144668 96.20582418 147.484375 92.86328125 C147.85676552 91.89260963 147.85676552 91.89260963 148.23667908 90.90232849 C148.78606997 89.46991509 149.33323344 88.03664597 149.87850952 86.60266113 C151.40718075 82.58551633 152.95499957 78.57578449 154.50390625 74.56640625 C154.84601639 73.68044769 155.18812653 72.79448914 155.54060364 71.88168335 C161.42906235 56.67971386 167.54955757 41.56785555 173.62207031 26.4387207 C174.08770889 25.27784439 174.55334747 24.11696808 175.03309631 22.9209137 C175.90900112 20.73763376 176.78576499 18.5546982 177.66355896 16.37217712 C178.05906448 15.38665359 178.45457001 14.40113007 178.86206055 13.38574219 C179.20399948 12.53502136 179.54593842 11.68430054 179.89823914 10.80780029 C181.30577362 7.22074627 182.64700743 3.60798019 184 0 C215.68 0 247.36 0 280 0 C280 3.96 280 7.92 280 12 C278.30875 12.103125 276.6175 12.20625 274.875 12.3125 C266.46293272 13.11825357 260.66521343 16.80725658 255 23 C250.01955433 29.58718309 250.43279963 35.87811313 250.48242188 43.91821289 C250.47699565 45.3282188 250.46987018 46.73821904 250.46118164 48.14820862 C250.44300621 51.96226738 250.44999114 55.77589149 250.46269798 59.58995748 C250.47285381 63.58833912 250.46342534 67.58668457 250.45715332 71.58506775 C250.44988525 78.29742081 250.45944334 85.00959756 250.47851562 91.72192383 C250.50029174 99.47523428 250.49322446 107.22812409 250.47121 114.98142439 C250.45304255 121.64745809 250.45050396 128.31336537 250.46096468 134.97941583 C250.46719112 138.95680188 250.46805861 142.93399035 250.45481873 146.9113636 C250.44324078 150.65030878 250.45132071 154.38871283 250.47439575 158.12759972 C250.48218361 160.14932899 250.47034417 162.17110417 250.45788574 164.19281006 C250.50486327 172.90338424 250.50486327 172.90338424 255 180 C255.95519531 181.10408203 255.95519531 181.10408203 256.9296875 182.23046875 C264.31548522 189.66075923 269.59314307 191.36543555 280 192 C280 195.96 280 199.92 280 204 C239.74 204 199.48 204 158 204 C158 200.04 158 196.08 158 192 C159.340625 191.7525 160.68125 191.505 162.0625 191.25 C171.11929878 189.16976653 176.56177129 184.41349339 182 177 C183.73941405 173.33940189 184.24825264 170.46375225 184.24050903 166.42546082 C184.24325836 165.31633331 184.24600769 164.20720581 184.24884033 163.06446838 C184.24164978 161.85749802 184.23445923 160.65052765 184.22705078 159.40698242 C184.22734283 158.12853455 184.22763489 156.85008667 184.22793579 155.53289795 C184.22850878 152.03531518 184.21676322 148.53787004 184.20278788 145.0403192 C184.19027155 141.38213664 184.18910931 137.7239508 184.18673706 134.06575012 C184.18052494 127.14206465 184.16411776 120.21844247 184.14403808 113.29478484 C184.12167074 105.41091003 184.11068355 97.52703217 184.10064721 89.64313352 C184.07975129 73.42871866 184.04458053 57.21436741 184 41 C180.57420018 49.72004479 177.14842129 58.4400978 173.72265625 67.16015625 C173.46971715 67.80399553 173.21677805 68.4478348 172.95617414 69.11118436 C167.13570064 83.92681204 161.31526021 98.74245264 155.49609375 113.55859375 C146.00990198 137.7106633 136.52004901 161.86125225 127 186 C123.37 186 119.74 186 116 186 C110.50082707 175.11682964 105.18453452 164.16116998 100 153.125 C99.25928239 151.5520043 98.5183931 149.97908944 97.77734375 148.40625 C95.88255808 144.38349778 93.98997435 140.3597143 92.09814453 136.33557129 C90.3788859 132.67899333 88.65817363 129.02309976 86.9375 125.3671875 C84.96850379 121.18357505 82.99978424 116.99983371 81.0324707 112.81542969 C77.56572993 105.4430227 74.09123431 98.07437015 70.60546875 90.7109375 C69.86001843 89.13542027 69.11457569 87.55989945 68.36914062 85.984375 C66.9801019 83.04872398 65.58926738 80.11393443 64.19726562 77.1796875 C58.35220195 64.83815409 52.6707125 52.42244115 47 40 C46.93026736 53.20497869 46.87707095 66.40991305 46.84456348 79.61503887 C46.82895587 85.74773891 46.80780759 91.88031229 46.77368164 98.01293945 C46.74091284 103.93925522 46.72311017 109.86544971 46.71536827 115.79184914 C46.70985609 118.04469522 46.69909275 120.29753522 46.68280983 122.55032921 C46.52929589 139.49627971 46.52929589 139.49627971 50 156 C50.2279274 156.75501297 50.4558548 157.51002594 50.69068909 158.28791809 C54.73983079 170.97328224 60.09804495 183.11265213 72.1875 189.75 C76.92799112 191.63979038 81.95660703 191.68867945 87 192 C87 195.96 87 199.92 87 204 C58.29 204 29.58 204 0 204 C0 199.71 0 195.42 0 191 C1.505625 190.835 3.01125 190.67 4.5625 190.5 C9.64494913 189.42775335 12.12710184 187.81908059 15.27734375 183.73046875 C25.43012694 167.63796207 31.30809074 150.79155369 31.29052734 131.6887207 C31.29724457 130.61731842 31.30396179 129.54591614 31.31088257 128.44204712 C31.32972336 124.93657673 31.33377871 121.43129895 31.3359375 117.92578125 C31.34237156 115.47201969 31.34910037 113.01825889 31.35610962 110.5644989 C31.36804494 105.43808207 31.37179395 100.31173247 31.37060547 95.18530273 C31.37040168 88.62499959 31.39778276 82.06512671 31.43214989 75.50492573 C31.45440208 70.44422938 31.45844363 65.38363722 31.45738602 60.32289696 C31.45974145 57.90403946 31.46856165 55.48517906 31.48405075 53.06637001 C31.50369013 49.68497143 31.49788153 46.30451001 31.48583984 42.9230957 C31.50269836 41.43526329 31.50269836 41.43526329 31.51989746 39.91737366 C31.45421192 32.64275881 29.77609196 27.50893055 25.25390625 21.79296875 C24.69574219 21.26316406 24.13757813 20.73335937 23.5625 20.1875 C23.00691406 19.64480469 22.45132813 19.10210937 21.87890625 18.54296875 C17.20712498 14.70647478 13.14784798 13.43420137 7.1875 12.8125 C6.14819336 12.6897168 6.14819336 12.6897168 5.08789062 12.56445312 C3.39313016 12.36575707 1.69669806 12.18140797 0 12 C0 8.04 0 4.08 0 0 Z " fill="#C75C89" transform="translate(74,57)"/>
<path d="M0 0 C1.13179687 0.18304688 2.26359375 0.36609375 3.4296875 0.5546875 C11.43785878 2.05275187 18.86373601 4.61623498 26.42895508 7.57495117 C34.05547511 10.85325325 34.05547511 10.85325325 41.9296875 9.77734375 C42.90164063 9.17019531 43.87359375 8.56304687 44.875 7.9375 C45.926875 7.29554687 46.97875 6.65359375 48.0625 5.9921875 C50.54458382 4.30885938 52.65591596 2.56158864 54.875 0.5625 C59 -2 59 -2 73 -2 C73 24.07 73 50.14 73 77 C69.37 77 65.74 77 62 77 C59.25268064 73.96416402 57.75930181 71.84334284 55.9375 68.3125 C54.93475039 66.5569942 53.92689694 64.80439428 52.9140625 63.0546875 C52.42583008 62.19069336 51.93759766 61.32669922 51.43457031 60.43652344 C48.16707785 54.88690213 44.09105922 49.95947644 40 45 C38.91138672 43.66388672 38.91138672 43.66388672 37.80078125 42.30078125 C25.83946797 28.27791308 9.20477994 18.24893565 -9 15 C-9.93457031 14.81824219 -10.86914062 14.63648437 -11.83203125 14.44921875 C-24.71380081 12.62258065 -40.4965684 12.77659582 -51.41015625 20.64453125 C-55.08021906 23.77355286 -56.77193991 26.15888991 -57.375 31.02734375 C-57.70060481 39.17790584 -57.70060481 39.17790584 -54.5390625 46.4609375 C-43.45827336 57.54172664 -25.90526679 61.00701831 -11.125 64.3125 C11.61232328 69.40467879 38.69805467 76.11607502 57 91 C57.85207031 91.68964844 58.70414063 92.37929687 59.58203125 93.08984375 C72.62861563 104.21953867 79.56253554 117.91014476 81 135 C82.09451467 152.04315701 79.07968856 168.19885654 67.625 181.3125 C66.1008411 182.89208286 64.56018108 184.4559866 63 186 C62.40832031 186.62519531 61.81664062 187.25039062 61.20703125 187.89453125 C52.76225444 196.15288915 40.34099496 201.27795492 29 204 C28.01717041 204.25120605 27.03434082 204.50241211 26.02172852 204.76123047 C17.65921884 206.75361786 9.66371188 207.44226167 1.09594727 207.33618164 C-0.93318644 207.31255024 -2.96099692 207.31565892 -4.99023438 207.32226562 C-16.68892984 207.29825798 -28.50266847 206.52250492 -39.6875 202.875 C-40.32268555 202.66834717 -40.95787109 202.46169434 -41.61230469 202.2487793 C-51.20139752 199.04132184 -61.16828753 195.56697964 -70.14111328 190.88208008 C-71.95113992 189.84013356 -71.95113992 189.84013356 -73.9453125 190.1171875 C-76.75861174 191.32594345 -78.62292571 193.05533671 -80.875 195.125 C-81.76445313 195.93066406 -82.65390625 196.73632812 -83.5703125 197.56640625 C-85.66133085 199.66078637 -87.13657726 201.61230211 -88.75 204.0625 C-92 207 -92 207 -106 207 C-106 177.96 -106 148.92 -106 119 C-102.37 119 -98.74 119 -95 119 C-94.34257813 120.22009766 -94.34257813 120.22009766 -93.671875 121.46484375 C-85.43261595 136.35244802 -75.88437371 149.8085832 -64 162 C-63.27554688 162.79792969 -62.55109375 163.59585938 -61.8046875 164.41796875 C-46.94815499 180.34351374 -24.82133239 190.25905886 -3.20703125 191.26171875 C8.06865687 191.5980674 18.73788147 191.37362131 28.0625 184.1875 C32.99075397 179.34338695 34.16657918 174.793189 34.4375 168.0625 C34.22009199 161.35629906 32.92295377 156.89869689 28.1171875 152.1328125 C15.86431651 141.90012813 -0.20326925 138.73005352 -15.25 134.6875 C-16.36906738 134.38658447 -17.48813477 134.08566895 -18.64111328 133.77563477 C-25.47803237 131.93895205 -25.47803237 131.93895205 -32.32177734 130.12792969 C-69.37742121 120.3925481 -69.37742121 120.3925481 -83 109 C-83.84820313 108.31164062 -84.69640625 107.62328125 -85.5703125 106.9140625 C-97.51374288 96.75323367 -104.91446462 83.90556309 -106.23901367 68.15844727 C-106.94367733 52.07883013 -106.81723062 37.73416687 -95.8046875 24.94921875 C-94.91136719 23.98435547 -94.91136719 23.98435547 -94 23 C-93.46632813 22.38769531 -92.93265625 21.77539062 -92.3828125 21.14453125 C-69.9968694 -3.11583292 -30.36692944 -5.09339156 0 0 Z " fill="#C75C8A" transform="translate(723,56)"/>
<path d="M0 0 C3.66366312 1.82897379 5.54313709 1.2741989 9.50390625 0.25 C13.21416927 -1.25084541 16.79237067 -2.97643845 20.37890625 -4.75 C21.82136719 -5.44609375 21.82136719 -5.44609375 23.29296875 -6.15625 C27.68029947 -8.02931025 27.68029947 -8.02931025 31.50390625 -10.75 C35.13390625 -10.75 38.76390625 -10.75 42.50390625 -10.75 C42.50390625 16.31 42.50390625 43.37 42.50390625 71.25 C39.20390625 71.25 35.90390625 71.25 32.50390625 71.25 C32.15199219 70.61610352 31.80007813 69.98220703 31.4375 69.32910156 C10.2422434 29.74386622 10.2422434 29.74386622 -26.15625 5.9453125 C-37.66223099 3.54991529 -48.7792973 4.56524596 -58.921875 10.72265625 C-72.78072718 20.575252 -78.09703886 37.25312049 -80.90625 53.34375 C-81.10089844 54.6328125 -81.29554687 55.921875 -81.49609375 57.25 C-81.59905762 57.89582031 -81.70202148 58.54164062 -81.80810547 59.20703125 C-86.91627073 92.45448919 -87.97205735 138.42232111 -68.49609375 167.25 C-61.46173867 176.28563656 -51.73925356 181.55934952 -40.49609375 183.25 C-36.98990038 183.50767477 -33.51041976 183.5306928 -29.99609375 183.5 C-29.11050781 183.50773438 -28.22492188 183.51546875 -27.3125 183.5234375 C-11.59925845 183.47728995 2.16339762 178.02972762 13.5859375 167.29296875 C26.0409818 154.45689059 29.8904686 138.4590088 30.19140625 121.125 C30.22466078 119.77340615 30.25915761 118.42184227 30.29492188 117.0703125 C30.37675077 113.79715656 30.44201954 110.52359372 30.50390625 107.25 C34.79390625 107.25 39.08390625 107.25 43.50390625 107.25 C48.20569364 126.98071496 48.04492404 146.93096927 37.234375 164.828125 C34.01903916 169.32814356 30.40714945 173.33983615 26.50390625 177.25 C25.9625 177.80300781 25.42109375 178.35601562 24.86328125 178.92578125 C8.12733169 194.60516834 -14.97150946 198.6225617 -36.99975586 198.56567383 C-39.52958226 198.56253598 -42.0582098 198.58596483 -44.58789062 198.61132812 C-77.78482942 198.74066344 -110.18864137 188.43101174 -134.30859375 165 C-151.29959324 147.81539991 -160.72216574 124.01248364 -160.76953125 99.98632812 C-160.7653418 99.31931885 -160.76115234 98.65230957 -160.75683594 97.96508789 C-160.7461654 95.9510245 -160.75676087 93.93786369 -160.76953125 91.92382812 C-160.71450894 63.93122652 -151.7114582 40.34980029 -132.68359375 20 C-102.49062389 -8.68633464 -36.45237423 -25.55659414 0 0 Z " fill="#C75C89" transform="translate(1362.49609375,64.75)"/>
<path d="M0 0 C12.48921284 9.81586826 15.35958282 27.03531961 17.390625 41.87890625 C17.56263428 42.98129639 17.73464355 44.08368652 17.91186523 45.21948242 C18.69758636 51.60759094 18.5970095 58.04581925 18.62890625 64.47265625 C18.63298178 65.17454575 18.6370573 65.87643524 18.64125633 66.59959412 C18.66204533 70.32957654 18.67636643 74.05952318 18.68579102 77.78955078 C18.69456478 80.8206852 18.71524107 83.85134823 18.74731445 86.88232422 C19.38256041 148.27213851 19.38256041 148.27213851 1.390625 166.87890625 C-7.73492282 173.88260466 -18.44827947 174.87184155 -29.609375 173.87890625 C-38.79863344 171.77093076 -45.61452356 166.25765345 -50.796875 158.50390625 C-62.55221181 137.16541444 -62.13595202 110.13978377 -61.921875 86.50390625 C-61.9159433 85.39192871 -61.9100116 84.27995117 -61.90390015 83.13427734 C-61.58089879 23.45776727 -61.58089879 23.45776727 -49.609375 6.87890625 C-48.4646875 5.27015625 -48.4646875 5.27015625 -47.296875 3.62890625 C-34.68813797 -9.27305723 -14.76406713 -9.39737402 0 0 Z " fill="#0A0B09" transform="translate(503.609375,75.12109375)"/>
<path d="M0 0 C0.66 0 1.32 0 2 0 C12.43275699 24.63845624 12.43275699 24.63845624 13 36 C13.06445312 37.19753906 13.12890625 38.39507812 13.1953125 39.62890625 C13.78551669 55.7598381 9.34751766 68.90497976 -1.3125 81.125 C-11.55577969 92.04776757 -23.52419144 100.79777871 -36 109 C-37.18540965 105.44377105 -37.24259671 102.50270292 -37.3125 98.75 C-37.34988281 97.46609375 -37.38726563 96.1821875 -37.42578125 94.859375 C-36.80361159 81.94759101 -31.12966407 70.03648387 -25.8125 58.5 C-24.75407624 56.16874549 -23.69998997 53.83555986 -22.64608765 51.5022583 C-21.91187163 49.87729062 -21.17636331 48.25290627 -20.43960571 46.62908936 C-16.02238229 36.88159917 -11.76343076 27.06546499 -7.5 17.25 C-6.74466398 15.51362121 -5.98921448 13.77729178 -5.23364258 12.04101562 C-3.48762906 8.0279795 -1.74327629 4.01422589 0 0 Z " fill="#0C0C0A" transform="translate(904,112)"/>
</svg>
