<?xml version="1.0" encoding="UTF-8"?>
<svg id="Layer_1" data-name="Layer 1" xmlns="http://www.w3.org/2000/svg" viewBox="195 405 455 80">
  <defs>
    <style>
      .cls-1 {
        fill: #a9acd6;
      }

      .cls-2 {
        fill: #491733;
      }

      .cls-3 {
        fill: #f4c9da;
      }

      .cls-4 {
        fill: #e65a9a;
      }
    </style>
  </defs>
  <g>
    <path class="cls-4" d="M201.8,474.55h.77c1.34,0,2.49-.58,3.45-1.73.96-1.15,1.82-2.49,2.59-4.03l.77-1.53c.83-1.73,1.47-3.52,1.92-5.37.45-1.85.67-3.93.67-6.24v-31.56c0-1.85-.64-3.42-1.92-4.7l-1.44-1.44c-.64-.64-1.34-1.12-2.11-1.44-.77-.32-1.63-.48-2.59-.48h-2.11v-3.84h31.66l16.69,37.7-3.36.1,14.96-37.8h30.89v3.84h-1.63c-.96,0-1.82.16-2.59.48-.77.32-1.47.8-2.11,1.44l-1.44,1.44c-1.28,1.28-1.92,2.85-1.92,4.7v42.4c0,1.86.64,3.42,1.92,4.7l1.44,1.44c.64.64,1.34,1.12,2.11,1.44.77.32,1.63.48,2.59.48h1.63v3.84h-39.52v-3.84h.67c.96,0,1.82-.16,2.59-.48.77-.32,1.47-.8,2.11-1.44l1.44-1.44c.64-.64,1.12-1.34,1.44-2.11.32-.77.48-1.63.48-2.59v-46.24l1.53.29-20.43,51.99h-3.55l-24.46-51.9,1.82-.38v35.4c0,2.3.22,4.38.67,6.24.45,1.86,1.09,3.65,1.92,5.37l.77,1.53c.77,1.53,1.77,2.88,3.02,4.03,1.25,1.15,3.08,1.73,5.52,1.73h1.15v3.84h-28.01v-3.84Z"/>
    <path class="cls-4" d="M315.76,475.46c-5.63-2.59-10.09-6.44-13.38-11.56-3.29-5.12-4.94-11.32-4.94-18.61s1.65-13.49,4.94-18.61c3.29-5.12,7.75-8.97,13.38-11.56,5.63-2.59,11.9-3.88,18.8-3.88s13.17,1.29,18.8,3.88c5.63,2.59,10.09,6.44,13.38,11.56,3.29,5.12,4.94,11.32,4.94,18.61s-1.65,13.49-4.94,18.61c-3.29,5.12-7.75,8.97-13.38,11.56-5.63,2.59-11.9,3.89-18.8,3.89s-13.17-1.3-18.8-3.89ZM342.48,471.57c1.89-2.05,3.23-5.18,4.03-9.4.8-4.22,1.2-9.88,1.2-16.98s-.4-12.66-1.2-16.88c-.8-4.22-2.16-7.32-4.08-9.3-1.92-1.98-4.57-2.97-7.96-2.97s-6.03.99-7.91,2.97c-1.89,1.98-3.21,5.07-3.98,9.26-.77,4.19-1.15,9.83-1.15,16.93s.4,12.76,1.2,16.98c.8,4.22,2.14,7.35,4.03,9.4,1.89,2.05,4.52,3.07,7.91,3.07s6.03-1.02,7.91-3.07Z"/>
    <path class="cls-4" d="M397.73,476.9c-4.51-1.63-9.03-3.66-13.57-6.09l7.87-.19c-1.79,1.34-3.34,2.64-4.65,3.88-1.31,1.25-2.86,2.86-4.65,4.84h-4.32v-28.87h3.36c5.05,8.95,10.2,15.17,15.44,18.66,5.24,3.49,10.46,5.23,15.64,5.23,3.71,0,6.55-.62,8.54-1.87,1.98-1.25,2.97-3.28,2.97-6.09,0-2.17-.78-3.95-2.35-5.32-1.57-1.37-3.53-2.48-5.9-3.31-2.37-.83-5.6-1.73-9.69-2.69-5.95-1.47-10.78-2.96-14.48-4.46-3.71-1.5-6.91-3.82-9.59-6.95-2.69-3.13-4.03-7.35-4.03-12.66,0-4.92,1.41-8.86,4.22-11.8,2.81-2.94,6.24-5,10.26-6.19,4.03-1.18,8.06-1.77,12.09-1.77,5.12,0,9.58.62,13.38,1.87,3.8,1.25,7.47,2.89,10.98,4.94l-8.25-.38c2.37-.89,4.32-1.79,5.85-2.69,1.54-.9,3.36-2.14,5.47-3.74h4.32v25.71h-3.36c-4.03-7.29-8.25-12.58-12.66-15.88-4.41-3.29-9.34-4.94-14.77-4.94-3.77,0-6.7.56-8.78,1.68-2.08,1.12-3.12,2.89-3.12,5.32,0,1.86.7,3.39,2.11,4.6,1.41,1.22,3.21,2.19,5.42,2.93,2.21.74,5.23,1.58,9.06,2.54,6.01,1.53,10.92,3.07,14.73,4.6,3.8,1.53,7.1,3.93,9.88,7.19,2.78,3.26,4.17,7.67,4.17,13.24,0,4.73-1.26,8.68-3.79,11.85-2.53,3.17-5.82,5.5-9.88,7-4.06,1.5-8.43,2.25-13.09,2.25-5.37,0-10.31-.82-14.82-2.45Z"/>
    <path class="cls-4" d="M439.79,474.55h1.15c1.79,0,3.93-1.39,6.43-4.17,2.49-2.78,4.73-6.38,6.71-10.79l19.86-44.03v10.36l-12.18,27.63c-1.54,3.52-2.14,6.89-1.82,10.12.32,3.23,1.34,5.85,3.07,7.87,1.73,2.01,3.74,3.02,6.04,3.02h.67v3.84h-29.93v-3.84ZM463.39,474.26c-1.54-.77-2.67-1.68-3.41-2.73-.74-1.06-1.1-2.03-1.1-2.93,0-1.02.45-2,1.34-2.93.9-.93,2.33-2.06,4.32-3.41,2.37-1.73,4.32-3.31,5.85-4.75s2.88-3.29,4.03-5.56c1.15-2.27,1.73-4.91,1.73-7.91,0-4.16-1.22-8.92-3.65-14.29l3.45-1.92c1.47,3.33,2.56,6.38,3.26,9.16.7,2.78,1.06,5.32,1.06,7.63,0,3.45-.67,6.38-2.01,8.78-1.34,2.4-2.89,4.29-4.65,5.66-1.76,1.38-3.95,2.83-6.57,4.36-1.92,1.15-3.33,2.08-4.22,2.78-.9.7-1.34,1.5-1.34,2.4s.38,1.81,1.15,2.73c.77.93,1.74,1.7,2.93,2.3,1.18.61,2.35.91,3.5.91v.86c-2.24,0-4.12-.38-5.66-1.15ZM459.17,412.19h28.3l25.04,52.95c1.34,2.75,2.89,5,4.65,6.76,1.76,1.76,3.66,2.64,5.71,2.64h1.15v3.84h-41.73v-3.84h1.34c1.09,0,2.14-.51,3.17-1.54s1.68-2.37,1.97-4.03c.29-1.66-.02-3.45-.91-5.37l-20.43-44.22-1.44-1.44c-.64-.64-1.34-1.12-2.11-1.44-.77-.32-1.63-.48-2.59-.48h-2.11v-3.84Z"/>
    <path class="cls-4" d="M523.54,474.55h1.63c.96,0,1.82-.16,2.59-.48.77-.32,1.47-.8,2.11-1.44l1.44-1.44c1.28-1.28,1.92-2.85,1.92-4.7v-42.4c0-1.85-.64-3.42-1.92-4.7l-1.44-1.44c-.64-.64-1.34-1.12-2.11-1.44-.77-.32-1.63-.48-2.59-.48h-1.63v-3.84h40.48v3.84h-1.63c-.96,0-1.82.16-2.59.48-.77.32-1.47.8-2.11,1.44l-1.44,1.44c-1.28,1.28-1.92,2.85-1.92,4.7v42.4c0,1.86.64,3.42,1.92,4.7l1.44,1.44c.64.64,1.34,1.12,2.11,1.44.77.32,1.63.48,2.59.48h1.63v3.84h-40.48v-3.84Z"/>
    <path class="cls-4" d="M588.24,475.46c-5.98-2.59-10.71-6.44-14.2-11.56-3.49-5.12-5.23-11.32-5.23-18.61s1.66-13.59,4.99-18.71c3.32-5.12,7.91-8.95,13.77-11.51,5.85-2.56,12.55-3.84,20.1-3.84,4.16,0,7.71.67,10.65,2.01,2.94,1.34,5.31,2.88,7.1,4.6l-5.08-1.53c4.22-1.41,8.02-3.1,11.42-5.08h3.36v26.67h-3.36c-3.26-6.84-6.73-12.2-10.41-16.07-3.68-3.87-7.72-5.8-12.13-5.8-3.45,0-6.32,1.01-8.59,3.02-2.27,2.01-3.98,5.18-5.13,9.5-1.15,4.32-1.73,9.87-1.73,16.64s.59,12.6,1.77,16.88c1.18,4.29,3.08,7.47,5.71,9.54,2.62,2.08,6.11,3.12,10.46,3.12,4.03,0,7.63-.96,10.79-2.88s5.55-4.8,7.15-8.63c1.6-3.84,2.08-8.44,1.44-13.81h4.12c1.47,5.5,1.39,10.52-.24,15.06-1.63,4.54-4.7,8.15-9.21,10.84-4.51,2.69-10.25,4.03-17.22,4.03-7.55,0-14.31-1.3-20.29-3.89Z"/>
  </g>
</svg>