<?xml version="1.0" encoding="UTF-8"?>
<svg version="1.1" xmlns="http://www.w3.org/2000/svg" width="366" height="332">
<path d="M0 0 C120.78 0 241.56 0 366 0 C366 109.56 366 219.12 366 332 C245.22 332 124.44 332 0 332 C0 222.44 0 112.88 0 0 Z " fill="#0A0B09" transform="translate(0,0)"/>
<path d="M0 0 C4.27362486 1.67743256 7.1773407 3.91196673 9.9375 7.5625 C11.6926202 11.58895222 12.12596142 14.99561631 12.13371277 19.38267517 C12.14011024 21.0208445 12.14011024 21.0208445 12.14663696 22.69210815 C12.14595718 24.48214767 12.14595718 24.48214767 12.14526367 26.30834961 C12.14862228 27.56886642 12.1519809 28.82938324 12.15544128 30.12809753 C12.16426893 33.58263653 12.16661886 37.03715075 12.16725707 40.49169993 C12.16796818 42.65062832 12.17010365 44.80955042 12.17275429 46.96847725 C12.18200306 54.5020195 12.18608969 62.03554406 12.18530273 69.5690918 C12.1847018 76.58891197 12.19525778 83.60865533 12.2110464 90.62845606 C12.22412467 96.65829261 12.22948652 102.68810407 12.22884732 108.7179547 C12.22859246 112.31804421 12.23143765 115.91806542 12.24202538 119.51814079 C12.25351067 123.53289922 12.2489578 127.54748556 12.24291992 131.56225586 C12.24853943 132.75359131 12.25415894 133.94492676 12.25994873 135.17236328 C12.25575424 136.26729599 12.25155975 137.3622287 12.24723816 138.49034119 C12.24778293 139.43920165 12.24832769 140.38806211 12.24888897 141.36567593 C11.8922594 145.14036254 11.0733508 148.0440287 8.20507812 150.59863281 C7.48771484 151.04561523 6.77035156 151.49259766 6.03125 151.953125 C5.22429687 152.45779297 4.41734375 152.96246094 3.5859375 153.48242188 C-0.72186295 156.01048906 -5.09103464 158.40358943 -9.5 160.75 C-16.48679405 164.50605624 -23.38518266 168.35704227 -30.1875 172.4375 C-49.20755644 183.72622286 -49.20755644 183.72622286 -58 182 C-65.18741471 179.67351314 -69.59576764 174.96715978 -73.02050781 168.34057617 C-73.6744414 166.99606169 -74.31826806 165.64659536 -74.953125 164.29296875 C-75.29881531 163.56813797 -75.64450562 162.84330719 -76.00067139 162.09651184 C-76.72436054 160.57160127 -77.44347723 159.04451301 -78.15820312 157.51538086 C-79.24560342 155.19687419 -80.35616267 152.89048996 -81.46875 150.58398438 C-82.17331175 149.09182339 -82.87648324 147.59900499 -83.578125 146.10546875 C-83.90725891 145.42703415 -84.23639282 144.74859955 -84.57550049 144.04960632 C-87.22484211 138.29423232 -89.08286212 132.32730406 -87.06298828 126.12084961 C-86.57040527 125.30624268 -86.07782227 124.49163574 -85.5703125 123.65234375 C-84.75530273 122.26305664 -84.75530273 122.26305664 -83.92382812 120.84570312 C-83.33021484 119.88599609 -82.73660156 118.92628906 -82.125 117.9375 C-80.90867608 115.88422007 -79.69253067 113.83083438 -78.4765625 111.77734375 C-77.8774707 110.78460449 -77.27837891 109.79186523 -76.66113281 108.76904297 C-74.53193093 105.2197473 -72.50706897 101.61921859 -70.5 98 C-68.03311206 93.59749238 -65.54932863 89.20493218 -63.05078125 84.8203125 C-57.25539143 74.63509469 -51.57777237 64.4023817 -46.0625 54.0625 C-40.85352262 44.30341994 -35.42648824 34.69838308 -29.79321289 25.17797852 C-26.51216251 19.63028752 -23.37735185 14.04071122 -20.40136719 8.32250977 C-15.59240084 0.35252774 -8.76180953 -1.05094481 0 0 Z " fill="#3B212E" transform="translate(268,40)"/>
<path d="M0 0 C9.20449635 3.74997999 13.51522734 16.73569544 17.8125 25.125 C21.21357424 31.70500977 24.63512279 38.25734328 28.3125 44.6875 C32.4484254 51.92729493 36.38635046 59.27006461 40.3125 66.625 C46.8072202 78.78744966 53.36956222 90.91092163 60 103 C60.50080078 103.91378418 61.00160156 104.82756836 61.51757812 105.76904297 C63.01062203 108.49246564 64.50494069 111.21518325 66 113.9375 C66.44504883 114.74832031 66.89009766 115.55914062 67.34863281 116.39453125 C67.98043457 117.54308594 67.98043457 117.54308594 68.625 118.71484375 C69.02203125 119.44558105 69.4190625 120.17631836 69.828125 120.92919922 C70.58637792 122.26909531 71.38673185 123.58636994 72.234375 124.87158203 C75.17995606 129.40974395 75.10169696 131.79697647 74 137 C73.05047446 139.49151795 72.07123255 141.84836548 70.9453125 144.25390625 C70.64309784 144.91784897 70.34088318 145.58179169 70.0295105 146.26585388 C69.06974869 148.36870818 68.0975193 150.46552035 67.125 152.5625 C66.47966302 153.97293891 65.8351246 155.38374349 65.19140625 156.79492188 C57.169079 174.32618095 57.169079 174.32618095 53.5625 177.25 C52.98628906 177.72953125 52.41007812 178.2090625 51.81640625 178.703125 C46.65973571 182.38487687 42.22994387 182.93101116 36 182 C31.72466247 180.51150058 27.89439456 178.27770712 24 176 C23.23139648 175.55430664 22.46279297 175.10861328 21.67089844 174.64941406 C17.07013108 171.97340368 12.49120218 169.26318668 7.92578125 166.52734375 C3.90564748 164.12115674 -0.13831428 161.76446907 -4.20703125 159.44140625 C-5.20879395 158.86463135 -6.21055664 158.28785645 -7.24267578 157.69360352 C-9.16668809 156.5870811 -11.09587601 155.48949674 -13.03076172 154.40209961 C-14.3361792 153.6461853 -14.3361792 153.6461853 -15.66796875 152.875 C-16.81688599 152.22144531 -16.81688599 152.22144531 -17.98901367 151.5546875 C-21.19381443 149.07706564 -22.80626409 146.35020072 -23.38311005 142.32999706 C-23.38683876 141.36420884 -23.39056747 140.39842062 -23.39440918 139.40336609 C-23.40575897 138.28897156 -23.41710876 137.17457703 -23.42880249 136.02641296 C-23.42587189 134.81330948 -23.42294128 133.60020599 -23.41992188 132.3503418 C-23.42839142 131.06523712 -23.43686096 129.78013245 -23.44558716 128.45608521 C-23.46777818 124.93730332 -23.47073497 121.4187558 -23.46883965 117.89991355 C-23.4687198 114.95776704 -23.47729005 112.01566991 -23.48561716 109.07353717 C-23.5048437 102.12849962 -23.5077383 95.18358226 -23.50097656 88.23852539 C-23.49434076 81.08621643 -23.51718274 73.93442384 -23.55429029 66.78221959 C-23.58503693 60.63169604 -23.59634184 54.48133814 -23.59245348 48.33073932 C-23.59039054 44.66169193 -23.59579351 40.99304616 -23.62034607 37.32407188 C-23.6468494 33.22831716 -23.63284777 29.13364444 -23.61523438 25.0378418 C-23.62849762 23.830811 -23.64176086 22.62378021 -23.65542603 21.38017273 C-23.58456095 14.2811854 -22.70254041 9.46147536 -18 4 C-12.79836161 -1.07476916 -6.87281453 -0.88986855 0 0 Z " fill="#3B222E" transform="translate(80,40)"/>
<path d="M0 0 C3.65543383 0.8684896 4.93571791 2.55139857 7.203125 5.5234375 C7.94275278 9.15208637 7.88013454 12.7213814 7.83203125 16.4140625 C7.83444321 17.4732489 7.83685516 18.5324353 7.83934021 19.62371826 C7.83836183 21.86295313 7.82497055 24.1022122 7.80004883 26.34130859 C7.76588094 29.74791943 7.77935716 33.15191457 7.79882812 36.55859375 C7.79192521 38.73959427 7.78224881 40.92058813 7.76953125 43.1015625 C7.77697105 44.61608002 7.77697105 44.61608002 7.78456116 46.16119385 C7.62959737 55.596197 4.43669988 63.40921908 -1.796875 70.5234375 C-3.47937395 72.05664997 -5.21546695 73.49643246 -6.98046875 74.93359375 C-9.58003167 77.20891012 -11.72822681 79.80431321 -13.96484375 82.4296875 C-24.3002307 94.24155831 -24.3002307 94.24155831 -30.671875 94.9609375 C-33.93132028 95.15906064 -34.76679692 94.54836459 -37.3515625 92.40625 C-39.94284667 89.35134949 -41.42845281 86.61873512 -43.046875 82.9609375 C-43.33425537 82.3210791 -43.62163574 81.6812207 -43.91772461 81.02197266 C-44.54682528 79.61853018 -45.17088407 78.21281943 -45.79052734 76.80517578 C-47.23847781 73.52217116 -48.71780343 70.25351492 -50.19458008 66.98339844 C-50.96985459 65.26287725 -51.7418408 63.54087049 -52.51049805 61.81738281 C-54.19042309 58.05324747 -55.88314247 54.30423621 -57.703125 50.60546875 C-58.2496875 49.48527344 -58.79625 48.36507812 -59.359375 47.2109375 C-59.83503906 46.26605469 -60.31070313 45.32117188 -60.80078125 44.34765625 C-62.05966875 40.77833992 -62.3023931 38.28296286 -61.796875 34.5234375 C-58.5768264 30.81369739 -55.21602814 28.35865973 -50.95703125 25.95703125 C-49.82112549 25.31193604 -48.68521973 24.66684082 -47.51489258 24.00219727 C-46.29652678 23.32152657 -45.07801801 22.64111175 -43.859375 21.9609375 C-42.60995231 21.25568981 -41.36085044 20.54987345 -40.11206055 19.84350586 C-31.22079166 14.82691091 -22.27565636 9.90673528 -13.28735352 5.06616211 C-12.44100342 4.60991455 -11.59465332 4.15366699 -10.72265625 3.68359375 C-9.98442627 3.28793213 -9.24619629 2.89227051 -8.4855957 2.48461914 C-5.46952207 0.76793823 -3.67739013 0.26668096 0 0 Z " fill="#3B212E" transform="translate(274.796875,211.4765625)"/>
<path d="M0 0 C3.01586914 1.18652344 3.01586914 1.18652344 6.03515625 2.859375 C7.16397217 3.47498291 8.29278809 4.09059082 9.45581055 4.72485352 C10.65823871 5.39954898 11.86046426 6.07460565 13.0625 6.75 C14.30761724 7.43614513 15.55347613 8.12094603 16.80004883 8.80444336 C19.32480743 10.19113793 21.84511843 11.58544967 24.36230469 12.98583984 C27.69771664 14.83817329 31.0520496 16.65334676 34.4140625 18.45703125 C36.3385544 19.49216383 38.26303431 20.5273187 40.1875 21.5625 C41.05189697 22.0255957 41.91629395 22.48869141 42.80688477 22.96582031 C58.15075244 31.30150488 58.15075244 31.30150488 60 35 C60.48323922 40.09597721 59.27669646 43.03827101 56.875 47.5 C52.53584614 55.77759702 48.56634736 64.21597017 44.625 72.6875 C43.99988723 74.02606502 43.37472535 75.3646071 42.74951172 76.703125 C39.6834127 83.17435341 39.6834127 83.17435341 36.95068359 89.78833008 C35.59322166 92.94632897 34.16374365 93.73450254 31 95 C26.19225606 95.03522157 23.62585833 94.0205884 20.2109375 90.796875 C18.91662535 89.46294104 17.63825049 88.1133862 16.375 86.75 C15.41207031 85.74646484 15.41207031 85.74646484 14.4296875 84.72265625 C13.17553909 83.41453834 11.92682884 82.1011811 10.68408203 80.78222656 C7.62798831 77.54803054 4.47821392 74.44204648 1.2109375 71.421875 C0.27507813 70.54015625 -0.66078125 69.6584375 -1.625 68.75 C-2.56601562 67.87859375 -3.50703125 67.0071875 -4.4765625 66.109375 C-10.51867207 59.45740377 -10.4471793 50.57587728 -10.3984375 42.0703125 C-10.40130768 40.95816376 -10.40417786 39.84601501 -10.40713501 38.70016479 C-10.4091656 36.36553433 -10.40370655 34.03088645 -10.39111328 31.69628906 C-10.37495421 28.11485229 -10.39104367 24.53452843 -10.41015625 20.953125 C-10.40817543 18.67968501 -10.4043351 16.40624571 -10.3984375 14.1328125 C-10.40754654 12.5250444 -10.40754654 12.5250444 -10.4168396 10.88479614 C-10.40738312 9.89301361 -10.39792664 8.90123108 -10.38818359 7.87939453 C-10.38579681 7.00719269 -10.38341003 6.13499084 -10.38095093 5.23635864 C-9.37911719 -0.64487009 -5.16130165 -0.51227106 0 0 Z " fill="#3A202D" transform="translate(63,213)"/>
<path d="M0 0 C5.00838806 3.1052006 9.12595471 6.74462184 13.375 10.8125 C14.69573922 12.06212374 16.01734615 13.31083108 17.33984375 14.55859375 C17.96874512 15.15269043 18.59764648 15.74678711 19.24560547 16.35888672 C22.41970114 19.32803104 25.68846084 22.18572071 29 25 C24.77825468 30.98080587 20.07001809 36.29508421 15.05175781 41.60620117 C12.19452312 44.55981574 12.19452312 44.55981574 10 48 C5.81943746 47.40944966 2.87938139 45.98722639 -0.73828125 43.83984375 C-1.80498047 43.21142578 -2.87167969 42.58300781 -3.97070312 41.93554688 C-5.07349609 41.27619141 -6.17628906 40.61683594 -7.3125 39.9375 C-8.43462891 39.27427734 -9.55675781 38.61105469 -10.71289062 37.92773438 C-13.4791287 36.29153398 -16.2412485 34.64878136 -19 33 C-18.42999832 28.6480745 -16.8546054 25.80740793 -14.47265625 22.1484375 C-13.76302734 21.05015625 -13.05339844 19.951875 -12.32226562 18.8203125 C-11.56916918 17.67177088 -10.81591232 16.52333444 -10.0625 15.375 C-9.31243703 14.21921305 -8.56308074 13.06296717 -7.81445312 11.90625 C-5.23033399 7.92347345 -2.63352554 3.9502883 0 0 Z " fill="#A2A3C1" transform="translate(86,161)"/>
<path d="M0 0 C2.06277107 0.14194764 4.12521031 0.28872216 6.1875 0.4375 C7.91033203 0.55931641 7.91033203 0.55931641 9.66796875 0.68359375 C12.51598171 0.95403812 15.21210482 1.37521747 18 2 C17.73927954 10.2257305 16.74478963 17.83429952 14.73242188 25.79833984 C12.97475055 32.83690001 11.60180463 39.93603352 10.25 47.0625 C10.02731445 48.23586914 9.80462891 49.40923828 9.57519531 50.61816406 C9.04733533 53.41159579 8.52209801 56.20548649 8 59 C4 59 4 59 1.73828125 56.796875 C0.93777344 55.79140625 0.13726562 54.7859375 -0.6875 53.75 C-1.33235352 52.94550415 -1.33235352 52.94550415 -1.99023438 52.12475586 C-3.34150475 50.42750685 -4.6721265 48.71559507 -6 47 C-6.43135254 46.45037598 -6.86270508 45.90075195 -7.30712891 45.33447266 C-15.91920614 34.34096312 -15.91920614 34.34096312 -17 30 C-15.77416992 26.89379883 -15.77416992 26.89379883 -13.73046875 23.45703125 C-13.37487381 22.84736008 -13.01927887 22.2376889 -12.65290833 21.60954285 C-11.51460836 19.666673 -10.35180913 17.73987276 -9.1875 15.8125 C-8.41433207 14.50424872 -7.6428274 13.19501293 -6.87304688 11.88476562 C-5.46356428 9.48933917 -4.04303699 7.1019879 -2.61401367 4.71801758 C-1.69602389 3.17211223 -0.80405579 1.60811159 0 0 Z " fill="#E6C4CE" transform="translate(221,96)"/>
<path d="M0 0 C2.12038831 7.21337842 -0.85565446 12.07732035 -4.0625 18.5625 C-5.09301161 20.70743794 -6.12166859 22.85326794 -7.1484375 25 C-7.64569336 26.03125 -8.14294922 27.0625 -8.65527344 28.125 C-10.33571689 31.71775637 -11.76020557 35.36269767 -13.1875 39.0625 C-15.5806917 44.734226 -18.55060003 48.94455609 -24 52 C-25.66087766 52.36107379 -27.32742703 52.69769461 -29 53 C-30.00523605 47.86038697 -31.00185445 42.71920338 -31.99072266 37.57641602 C-32.32790941 35.82921966 -32.66739579 34.08246541 -33.00927734 32.33618164 C-33.50191181 29.81771359 -33.98609705 27.29774133 -34.46875 24.77734375 C-34.62186646 24.00414291 -34.77498291 23.23094208 -34.93273926 22.43431091 C-35.79690256 17.86985078 -36.15064439 13.64576542 -36 9 C-28.36459647 6.54625273 -20.6850465 4.3188332 -12.9375 2.25 C-12.11660889 2.02739502 -11.29571777 1.80479004 -10.44995117 1.57543945 C-9.67111572 1.37007568 -8.89228027 1.16471191 -8.08984375 0.953125 C-7.39753662 0.76911133 -6.70522949 0.58509766 -5.99194336 0.39550781 C-4 0 -4 0 0 0 Z " fill="#A1A2C1" transform="translate(154,168)"/>
<path d="M0 0 C3.89730928 1.48355016 7.56429571 3.24890178 11.26953125 5.16015625 C11.86366318 5.46629349 12.4577951 5.77243073 13.06993103 6.08784485 C14.98562603 7.07651663 16.89923823 8.06912856 18.8125 9.0625 C19.46118042 9.39848206 20.10986084 9.73446411 20.77819824 10.08062744 C48.39217695 24.39217695 48.39217695 24.39217695 51 27 C51.12679022 31.80897188 50.88011883 36.52293732 47.875 40.4375 C42.83339254 44.93110665 37.93650095 46.60888334 31.26953125 46.34765625 C25.08908935 45.40091042 21.21096264 42.55572488 17.29367065 37.77639771 C15.08705477 34.7463936 13.57036129 31.44359673 12.01171875 28.046875 C11.66365677 27.3054425 11.31559479 26.56401001 10.95698547 25.80010986 C10.22938734 24.24566353 9.50606608 22.68920869 8.78686523 21.13085938 C7.68229474 18.73872714 6.5639785 16.35340008 5.44335938 13.96875 C4.73617313 12.45350093 4.02976469 10.93788854 3.32421875 9.421875 C2.82277596 8.3500296 2.82277596 8.3500296 2.311203 7.25653076 C0 2.23295155 0 2.23295155 0 0 Z " fill="#A1A2C0" transform="translate(181,176)"/>
<path d="M0 0 C2.39453125 1.96875 2.39453125 1.96875 4.8125 4.5 C5.62332031 5.3146875 6.43414062 6.129375 7.26953125 6.96875 C9.7504067 11.31448217 8.97984061 14.23220017 8 19 C7.81800049 19.9389209 7.63600098 20.8778418 7.44848633 21.84521484 C6.83467169 24.88479914 6.17431297 27.91079806 5.5 30.9375 C5.27441406 31.97712891 5.04882812 33.01675781 4.81640625 34.08789062 C3.13649644 41.72700711 3.13649644 41.72700711 2 44 C-7.24507557 42.51379886 -17.29892465 36.4121374 -23 29 C-25.36163201 21.55743201 -24.27368757 13.58138031 -23 6 C-20.39608461 5.02016072 -17.79188032 4.04110206 -15.1875 3.0625 C-14.44951172 2.78470703 -13.71152344 2.50691406 -12.95117188 2.22070312 C-12.23896484 1.95322266 -11.52675781 1.68574219 -10.79296875 1.41015625 C-10.1383667 1.16402588 -9.48376465 0.91789551 -8.80932617 0.66430664 C-3.353392 -1.3388774 -3.353392 -1.3388774 0 0 Z " fill="#C55B88" transform="translate(80,105)"/>
<path d="M0 0 C3.33247455 0.21750417 4.17360979 1.18919366 6.48046875 3.703125 C7.39429931 4.87656078 8.29600811 6.05950429 9.1875 7.25 C9.66292236 7.87173096 10.13834473 8.49346191 10.62817383 9.1340332 C24 26.76488514 24 26.76488514 24 31 C20.22989721 32.6948693 16.45788771 34.38541249 12.68408203 36.07202148 C11.40132763 36.6460387 10.11909448 37.22122225 8.83740234 37.79760742 C6.99194566 38.6272755 5.14443264 39.4523648 3.296875 40.27734375 C2.18666992 40.77484131 1.07646484 41.27233887 -0.06738281 41.78491211 C-6.19446557 44.32358101 -6.19446557 44.32358101 -9.76171875 42.890625 C-11.20998047 42.07851562 -11.20998047 42.07851562 -12.6875 41.25 C-13.66074219 40.71890625 -14.63398438 40.1878125 -15.63671875 39.640625 C-18 38 -18 38 -19 35 C-18.33837891 33.16918945 -18.33837891 33.16918945 -17.2265625 31.11328125 C-16.61337158 29.96339722 -16.61337158 29.96339722 -15.98779297 28.7902832 C-15.53807129 27.97261475 -15.08834961 27.15494629 -14.625 26.3125 C-14.17398926 25.47485107 -13.72297852 24.63720215 -13.25830078 23.77416992 C-8.94169662 15.79259556 -4.49955297 7.87965193 0 0 Z " fill="#C65B89" transform="translate(200,133)"/>
<path d="M0 0 C2.96393565 3.51916662 5.27323507 7.0571461 7.453125 11.10546875 C8.071875 12.25337891 8.690625 13.40128906 9.328125 14.58398438 C9.64330078 15.17526123 9.95847656 15.76653809 10.28320312 16.37573242 C11.25474248 18.19638735 12.23615929 20.01146189 13.21875 21.82617188 C18 30.74079241 18 30.74079241 18 33 C15.06534449 33.82413642 12.12791 34.63436318 9.1875 35.4375 C8.37345703 35.66759766 7.55941406 35.89769531 6.72070312 36.13476562 C0.49909334 37.81826004 -5.5720839 38.596196 -12 39 C-13.87416423 35.76114441 -15.72070405 32.5073541 -17.5625 29.25 C-18.36204102 27.86941406 -18.36204102 27.86941406 -19.17773438 26.4609375 C-19.67724609 25.57148438 -20.17675781 24.68203125 -20.69140625 23.765625 C-21.15748291 22.94868164 -21.62355957 22.13173828 -22.10375977 21.29003906 C-23 19 -23 19 -22.85595703 16.86816406 C-21.79443436 14.55134391 -20.73160634 13.74416952 -18.61328125 12.34375 C-17.92169922 11.87839844 -17.23011719 11.41304687 -16.51757812 10.93359375 C-15.78990234 10.46050781 -15.06222656 9.98742187 -14.3125 9.5 C-13.60416016 9.02691406 -12.89582031 8.55382812 -12.16601562 8.06640625 C-10.11730008 6.70059588 -8.05942968 5.34957938 -6 4 C-3.99788212 2.66981498 -1.99904788 1.33479733 0 0 Z " fill="#E5C4CE" transform="translate(133,132)"/>
<path d="M0 0 C3.91465663 0.60744672 4.86980317 1.32887815 7.23779297 4.36694336 C10.08587888 8.87465835 12.11273471 13.80386021 14.18408203 18.70336914 C15.00261703 20.63116358 15.84585636 22.5468168 16.69140625 24.46289062 C17.22026982 25.69466107 17.74766605 26.92706278 18.2734375 28.16015625 C18.74958496 29.26883057 19.22573242 30.37750488 19.71630859 31.51977539 C20.67595175 34.73311035 20.60020747 36.39730775 19.625 39.5625 C4.67857925 41.0390948 -4.19886 38.29315096 -16.375 29.5625 C-15.80699843 23.63765604 -13.44575109 18.71927571 -11 13.375 C-10.60039062 12.47330078 -10.20078125 11.57160156 -9.7890625 10.64257812 C-5.37666317 0.89611053 -5.37666317 0.89611053 0 0 Z " fill="#A1A2C0" transform="translate(168.375,191.4375)"/>
<path d="M0 0 C3.56751179 0.93434832 4.92656102 2.64160353 7.1328125 5.55859375 C9.09178836 11.76724886 9.39892108 19.42047288 7.1328125 25.55859375 C2.80660331 30.5889487 -3.71177837 33.37675035 -9.8671875 35.55859375 C-10.5279126 35.82800781 -11.1886377 36.09742188 -11.86938477 36.375 C-13.8671875 36.55859375 -13.8671875 36.55859375 -15.8659668 35.17504883 C-16.55086182 34.48306396 -17.23575684 33.7910791 -17.94140625 33.078125 C-18.69099609 32.32595703 -19.44058594 31.57378906 -20.21289062 30.79882812 C-20.98568359 29.99767578 -21.75847656 29.19652344 -22.5546875 28.37109375 C-23.33908203 27.58927734 -24.12347656 26.80746094 -24.93164062 26.00195312 C-31.24262186 19.58187973 -31.24262186 19.58187973 -31.8671875 15.55859375 C-31.18615967 15.17525879 -30.50513184 14.79192383 -29.8034668 14.39697266 C-26.71985817 12.66038781 -23.63726277 10.92201217 -20.5546875 9.18359375 C-19.48283203 8.5803125 -18.41097656 7.97703125 -17.30664062 7.35546875 C-16.27861328 6.77539062 -15.25058594 6.1953125 -14.19140625 5.59765625 C-13.24354248 5.06350098 -12.29567871 4.5293457 -11.3190918 3.97900391 C-7.19658976 1.59080149 -4.86721478 0.29585031 0 0 Z " fill="#A0A1BF" transform="translate(274.8671875,211.44140625)"/>
<path d="M0 0 C1.69165039 1.44287109 1.69165039 1.44287109 3.34765625 3.2734375 C3.95287109 3.9334375 4.55808594 4.5934375 5.18164062 5.2734375 C5.80232422 5.96695313 6.42300781 6.66046875 7.0625 7.375 C8.30310583 8.73723385 9.54398162 10.09922189 10.78515625 11.4609375 C11.33051025 12.06728027 11.87586426 12.67362305 12.43774414 13.29833984 C13.91815057 14.91084693 15.4402127 16.46454315 17 18 C15.68898456 20.98356661 14.41492374 22.76338715 11.84765625 24.76171875 C11.23599609 25.24060547 10.62433594 25.71949219 9.99414062 26.21289062 C9.35669922 26.69951172 8.71925781 27.18613281 8.0625 27.6875 C7.42892578 28.18572266 6.79535156 28.68394531 6.14257812 29.19726562 C3.38240489 31.33632732 1.35061523 32.88312826 -2 34 C-5.46542504 32.96911553 -8.7104834 31.36686527 -12 29.875 C-12.91523438 29.483125 -13.83046875 29.09125 -14.7734375 28.6875 C-21.43402005 25.69902748 -21.43402005 25.69902748 -24.09375 22.4140625 C-25.37458664 19.00217869 -25.51614687 16.61302812 -25 13 C-21.27671436 8.56649224 -16.92110538 5.90229795 -11.9375 3.125 C-10.87692383 2.50238281 -10.87692383 2.50238281 -9.79492188 1.8671875 C-9.10849609 1.48046875 -8.42207031 1.09375 -7.71484375 0.6953125 C-7.09730225 0.34484863 -6.47976074 -0.00561523 -5.84350586 -0.36669922 C-3.44046586 -1.19221713 -2.34059403 -0.95959152 0 0 Z " fill="#A2A2C1" transform="translate(238,233)"/>
<path d="M0 0 C7.20170159 1.35319317 13.52254247 3.83460961 18.15234375 9.75 C20.31602073 13.59653685 22.14208401 16.96561525 21.828125 21.4609375 C21.0904156 23.79701725 20.12758671 25.82704645 19 28 C18.690625 28.80824219 18.38125 29.61648438 18.0625 30.44921875 C16.67708102 34.03399035 15.54095948 36.5029021 12.6875 39.125 C9.14755139 40.27754141 6.45002782 40.31059679 3 39 C-0.12405968 36.60317802 -2.75513744 33.81128459 -5.4375 30.9375 C-6.16904297 30.17888672 -6.90058594 29.42027344 -7.65429688 28.63867188 C-9.45055419 26.7719731 -11.2312871 24.89275498 -13 23 C-11.73294681 19.63584449 -10.28886807 16.62968211 -8.3984375 13.57421875 C-7.90859375 12.77822266 -7.41875 11.98222656 -6.9140625 11.16210938 C-6.40617187 10.34548828 -5.89828125 9.52886719 -5.375 8.6875 C-4.859375 7.85154297 -4.34375 7.01558594 -3.8125 6.15429688 C-2.54512996 4.10068801 -1.27421427 2.04936659 0 0 Z " fill="#C65B89" transform="translate(84,268)"/>
<path d="M0 0 C3.81968988 1.53278085 6.76049258 3.45922185 9.3449707 6.671875 C10 9 10 9 8.48291016 12.11621094 C7.68480487 13.33325444 6.86888051 14.53872914 6.0390625 15.734375 C5.61450775 16.37240051 5.189953 17.01042603 4.75253296 17.66778564 C3.39151661 19.70561133 2.00878393 21.72758348 0.625 23.75 C-0.30094727 25.12792083 -1.22544567 26.50681649 -2.1484375 27.88671875 C-4.41562717 31.26935806 -6.70240674 34.63794575 -9 38 C-12.97554087 37.14581324 -15.63118987 35.42421291 -19 33.125 C-20.03125 32.42632812 -21.0625 31.72765625 -22.125 31.0078125 C-24.4543468 29.38106759 -26.74319983 27.72515013 -29 26 C-27.60043758 21.32289088 -25.65164519 17.16787883 -23.25 12.9375 C-22.92773438 12.33873047 -22.60546875 11.73996094 -22.2734375 11.12304688 C-17.07865022 1.93149497 -10.46131257 -1.26718456 0 0 Z " fill="#A1A2C1" transform="translate(268,40)"/>
<path d="M0 0 C3.77094609 1.4809271 5.74446912 3.61670367 8 7 C7.61842743 11.01908897 6.07631824 14.48859077 4.49609375 18.17578125 C4.00302734 19.33271484 3.50996094 20.48964844 3.00195312 21.68164062 C2.22754883 23.47891602 2.22754883 23.47891602 1.4375 25.3125 C0.9116721 26.54213081 0.38627697 27.77194678 -0.13867188 29.00195312 C-1.42153664 32.00315052 -2.70878448 35.00238815 -4 38 C-11.1072899 35.6691079 -17.68330581 33.39352503 -23 28 C-24.85763705 21.04100583 -24.48281385 13.64785657 -20.875 7.25 C-15.070118 -0.01816251 -9.01173928 -1.24682968 0 0 Z " fill="#A1A2C1" transform="translate(80,40)"/>
<path d="M0 0 C1.35560445 2.13316082 2.53573856 4.20926041 3.6875 6.44921875 C4.03127686 7.09945511 4.37505371 7.74969147 4.72924805 8.41963196 C5.82858003 10.5042917 6.91431538 12.59570596 8 14.6875 C8.73090268 16.07793067 9.46266395 17.46791036 10.1953125 18.85742188 C13.18661059 24.54381672 16.14114445 30.24545365 19 36 C11.49992666 34.52055515 4.44592991 32.25142084 -2.75 29.6875 C-3.85988281 29.30916016 -4.96976563 28.93082031 -6.11328125 28.54101562 C-11.93244013 26.47174794 -16.10919581 24.85751324 -20 20 C-20.886875 19.113125 -21.77375 18.22625 -22.6875 17.3125 C-24.125 15.875 -25.5625 14.4375 -27 13 C-26.93896484 11.03833008 -26.93896484 11.03833008 -26 9 C-23.82275391 7.61206055 -23.82275391 7.61206055 -20.9765625 6.38671875 C-19.44515625 5.7225293 -19.44515625 5.7225293 -17.8828125 5.04492188 C-16.80773437 4.59697266 -15.73265625 4.14902344 -14.625 3.6875 C-13.55765625 3.22021484 -12.4903125 2.75292969 -11.390625 2.27148438 C-3.40232324 -1.13410775 -3.40232324 -1.13410775 0 0 Z " fill="#E4C2CC" transform="translate(112,91)"/>
<path d="M0 0 C0.08770383 3.85402129 0.14062735 7.70778291 0.1875 11.5625 C0.21263672 12.64853516 0.23777344 13.73457031 0.26367188 14.85351562 C0.35137014 24.47109162 -1.55492669 29.85816201 -8 37 C-18.07101788 34.35842154 -27.46898428 30.1285413 -37 26 C-37 24.68 -37 23.36 -37 22 C-34.63256836 19.95703125 -34.63256836 19.95703125 -31.33984375 17.8125 C-30.75715225 17.42811768 -30.17446075 17.04373535 -29.57411194 16.64770508 C-27.70349937 15.41860894 -25.82081608 14.20951759 -23.9375 13 C-22.6951579 12.18612429 -21.45361128 11.37103292 -20.21289062 10.5546875 C-4.08739084 0 -4.08739084 0 0 0 Z " fill="#E6C4CE" transform="translate(281,244)"/>
<path d="M0 0 C4.58119285 0.87668246 7.30186995 3.5922487 10.6875 6.625 C11.93220136 7.7177339 13.17829621 8.80888257 14.42578125 9.8984375 C15.03244629 10.42920898 15.63911133 10.95998047 16.26416016 11.50683594 C19.72679889 14.48538706 23.34948033 17.25728152 27 20 C26.82592773 21.79736328 26.82592773 21.79736328 26 24 C23.75024414 25.64404297 23.75024414 25.64404297 20.78515625 27.2421875 C19.70556641 27.83386719 18.62597656 28.42554688 17.51367188 29.03515625 C16.37478516 29.64230469 15.23589844 30.24945313 14.0625 30.875 C11.84427137 32.07929225 9.62681384 33.28500599 7.41015625 34.4921875 C6.33266113 35.07452148 5.25516602 35.65685547 4.14501953 36.25683594 C0.33146514 38.37054331 -3.38093625 40.62514528 -7.07641602 42.93798828 C-9 44 -9 44 -11 44 C-8.2802772 29.11309627 -4.10901225 14.549945 0 0 Z " fill="#A1A1C0" transform="translate(246,169)"/>
<path d="M0 0 C3.63292317 1.34847736 6.79931903 2.98484994 10.08203125 5.0390625 C11.01337891 5.61914062 11.94472656 6.19921875 12.90429688 6.796875 C13.86400391 7.40015625 14.82371094 8.0034375 15.8125 8.625 C16.79154297 9.23601562 17.77058594 9.84703125 18.77929688 10.4765625 C21.18845472 11.98081715 23.59524068 13.4887274 26 15 C25.42702897 18.70127051 24.43198818 21.35429971 22.48828125 24.546875 C21.97716797 25.3925 21.46605469 26.238125 20.93945312 27.109375 C20.40255859 27.98078125 19.86566406 28.8521875 19.3125 29.75 C18.79494141 30.6059375 18.27738281 31.461875 17.74414062 32.34375 C14.30644871 37.99475041 10.71189158 43.52564546 7 49 C4.625 48.75 4.625 48.75 2 48 C0.13667787 45.1381817 -0.24644448 42.88134015 -0.22705078 39.50683594 C-0.22689972 38.62622498 -0.22674866 37.74561401 -0.22659302 36.83831787 C-0.21627045 35.89651672 -0.20594788 34.95471558 -0.1953125 33.984375 C-0.1924826 33.01340881 -0.18965271 32.04244263 -0.18673706 31.04205322 C-0.17555292 27.94457615 -0.15045142 24.8473895 -0.125 21.75 C-0.11496792 19.64844168 -0.10584247 17.54687882 -0.09765625 15.4453125 C-0.07561934 10.29676331 -0.04110145 5.14843087 0 0 Z " fill="#A0A0BF" transform="translate(57,141)"/>
<path d="M0 0 C5.81938308 1.25148023 11.01564028 4.5287919 16.1875 7.375 C17.54004883 8.09816406 17.54004883 8.09816406 18.91992188 8.8359375 C19.78552734 9.3103125 20.65113281 9.7846875 21.54296875 10.2734375 C22.32696045 10.70060059 23.11095215 11.12776367 23.91870117 11.56787109 C26.21896878 13.15067107 27.52797708 14.63612976 29 17 C29.69094493 21.44178882 28.69392028 24.42626828 26.4152832 28.27270508 C23.76650115 31.5054346 20.15428176 32.84906027 16.375 34.4375 C15.59898438 34.78748047 14.82296875 35.13746094 14.0234375 35.49804688 C8.38302654 38 8.38302654 38 6 38 C4.58995467 33.96295818 3.18425116 29.92443834 1.7824707 25.88452148 C1.30545835 24.51171585 0.82728264 23.13931385 0.34790039 21.76733398 C-0.34278106 19.78996248 -1.02920191 17.811155 -1.71484375 15.83203125 C-2.12855225 14.64327393 -2.54226074 13.4545166 -2.96850586 12.22973633 C-3.84594904 9.48235271 -4.51103422 6.83787317 -5 4 C-2.875 1.875 -2.875 1.875 0 0 Z " fill="#A1A2C0" transform="translate(94,231)"/>
<path d="M0 0 C5.27120682 1.17869079 9.93513689 4.19252304 14.60449219 6.81103516 C15.70921875 7.4059375 16.81394531 8.00083984 17.95214844 8.61376953 C26.09532039 13.09601978 26.09532039 13.09601978 27.22949219 16.49853516 C-4.87517734 36.49853516 -4.87517734 36.49853516 -7.77050781 36.49853516 C-7.84466848 31.85379534 -7.89911396 27.20940016 -7.93530273 22.56420898 C-7.95038876 20.98406979 -7.97086032 19.40397247 -7.99682617 17.82397461 C-8.03321907 15.5526293 -8.05023544 13.28183757 -8.06347656 11.01025391 C-8.07896042 10.30390305 -8.09444427 9.59755219 -8.11039734 8.86979675 C-8.11139167 5.97157355 -8.11112918 3.99132522 -6.43432617 1.56542969 C-4.31194098 0.20448717 -2.50703878 -0.1127574 0 0 Z " fill="#A1A1C0" transform="translate(60.7705078125,212.50146484375)"/>
<path d="M0 0 C-1.3684397 6.50666761 -3.05597083 12.83090957 -5 19.1875 C-5.26039063 20.05052734 -5.52078125 20.91355469 -5.7890625 21.80273438 C-7.12882576 26.22462977 -8.51083389 30.62557455 -10 35 C-14.46963391 33.65852403 -18.24781734 31.87503739 -22.2734375 29.5234375 C-22.84204498 29.19332672 -23.41065247 28.86321594 -23.99649048 28.52310181 C-25.79239353 27.47889449 -27.58371638 26.42710791 -29.375 25.375 C-30.59996446 24.66095037 -31.82522226 23.94740372 -33.05078125 23.234375 C-36.03726655 21.49538341 -39.01969696 19.74957061 -42 18 C-41.505 16.515 -41.505 16.515 -41 15 C-38.3248437 13.66687508 -35.72126514 12.52050426 -32.94921875 11.42578125 C-32.13886673 11.09708542 -31.32851471 10.76838959 -30.49360657 10.42973328 C-28.77660915 9.73615363 -27.05739094 9.04805055 -25.33618164 8.36499023 C-22.70342615 7.31882848 -20.07898218 6.25368699 -17.45507812 5.18554688 C-15.78691875 4.51447936 -14.11831283 3.84452058 -12.44921875 3.17578125 C-11.66367111 2.85708572 -10.87812347 2.5383902 -10.06877136 2.21003723 C-9.33153336 1.91940903 -8.59429535 1.62878082 -7.8347168 1.3293457 C-7.18931442 1.07192093 -6.54391205 0.81449615 -5.87895203 0.54927063 C-4 0 -4 0 0 0 Z " fill="#A1A2C0" transform="translate(243,163)"/>
<path d="M0 0 C8.63545802 3.76315831 15.51351785 12.35044987 22 19 C21.505 20.485 21.505 20.485 21 22 C18.60431839 23.12196078 16.31063139 24.04575508 13.82421875 24.91796875 C13.10265091 25.18007645 12.38108307 25.44218414 11.63764954 25.7122345 C10.10881292 26.26478763 8.57791006 26.81165164 7.04516602 27.35327148 C4.70268147 28.18212824 2.36773656 29.02989939 0.03320312 29.88085938 C-1.45271597 30.41520131 -2.93903202 30.94844093 -4.42578125 31.48046875 C-5.47286003 31.86008003 -5.47286003 31.86008003 -6.54109192 32.24736023 C-9.93128689 33.43682622 -12.35660632 34 -16 34 C-15.73525992 30.98196308 -15.39122509 28.00334413 -15 25 C-14.86207031 23.7934375 -14.72414062 22.586875 -14.58203125 21.34375 C-13.35978673 13.14076666 -11.87320682 8.48927115 -5.15625 3.41796875 C-4.4446875 2.95003906 -3.733125 2.48210937 -3 2 C-2.01 1.34 -1.02 0.68 0 0 Z " fill="#C65B89" transform="translate(256,87)"/>
<path d="M0 0 C1.73925781 1.99365234 1.73925781 1.99365234 3.453125 4.5859375 C4.071875 5.51664063 4.690625 6.44734375 5.328125 7.40625 C5.96234375 8.3859375 6.5965625 9.365625 7.25 10.375 C7.8996875 11.34695312 8.549375 12.31890625 9.21875 13.3203125 C14 20.59263393 14 20.59263393 14 24 C9.94644588 25.57511273 5.88963054 27.14141465 1.82958984 28.69970703 C0.44943221 29.23083602 -0.92981219 29.76434453 -2.30810547 30.30029297 C-4.29157902 31.07108767 -6.27819984 31.83321182 -8.265625 32.59375 C-9.45961914 33.05458984 -10.65361328 33.51542969 -11.88378906 33.99023438 C-15 35 -15 35 -19 35 C-18.58638082 32.32236004 -18.14501997 29.65297071 -17.67578125 26.984375 C-17.14486293 23.96089351 -16.71267905 20.93141768 -16.29296875 17.890625 C-16.00941739 16.09349605 -15.72425698 14.29662024 -15.4375 12.5 C-15.33018555 11.62762695 -15.22287109 10.75525391 -15.11230469 9.85644531 C-14.48021277 6.15172434 -14.07208167 3.80477424 -10.98095703 1.484375 C-4.05467096 -1.83047938 -4.05467096 -1.83047938 0 0 Z " fill="#E6C4CE" transform="translate(251,125)"/>
<path d="M0 0 C4.24265606 0.60016712 8.03361377 1.59477617 12.0546875 3.06640625 C13.71757813 3.6706543 13.71757813 3.6706543 15.4140625 4.28710938 C16.55617188 4.70798828 17.69828125 5.12886719 18.875 5.5625 C20.0403125 5.98724609 21.205625 6.41199219 22.40625 6.84960938 C25.27256331 7.8951089 28.13703486 8.94537388 31 10 C26.62507227 14.78168754 21.5758194 18.27796877 16.25 21.9375 C15.3940625 22.53240234 14.538125 23.12730469 13.65625 23.74023438 C8.14736927 27.55889033 2.59002698 31.30131639 -3 35 C-4.32 34.34 -5.64 33.68 -7 33 C-7.45490578 26.23448638 -5.76605002 20.20153222 -4.0625 13.6875 C-3.78470703 12.59115234 -3.50691406 11.49480469 -3.22070312 10.36523438 C-1.16205752 2.32411504 -1.16205752 2.32411504 0 0 Z " fill="#E5C3CD" transform="translate(94,121)"/>
<path d="M0 0 C1.70018003 1.70018003 1.12801936 3.82570135 1.13894653 6.09336853 C1.1369223 6.80376785 1.13489807 7.51416718 1.1328125 8.24609375 C1.13376923 8.97240494 1.13472595 9.69871613 1.13571167 10.44703674 C1.13639344 11.9862578 1.13453937 13.52548171 1.13037109 15.06469727 C1.12503043 17.42405657 1.13031215 19.78322484 1.13671875 22.14257812 C1.13605782 23.63541709 1.13477634 25.12825593 1.1328125 26.62109375 C1.13483673 27.32946884 1.13686096 28.03784393 1.13894653 28.76768494 C1.11495714 33.77008571 1.11495714 33.77008571 0 36 C-3.91709993 34.34821087 -6.8913294 31.69616442 -10.0625 28.9375 C-11.21666048 27.94439662 -12.37162257 26.95222418 -13.52734375 25.9609375 C-14.10597168 25.46432617 -14.68459961 24.96771484 -15.28076172 24.45605469 C-18.71041354 21.55141915 -22.23784553 18.76669532 -25.7578125 15.97265625 C-27.86179418 14.12159223 -29.42212812 12.30493049 -31 10 C-28.22075978 8.83033838 -25.43857985 7.66855028 -22.65234375 6.515625 C-20.09672966 5.45511349 -17.54891087 4.38205464 -15.00390625 3.296875 C-13.66948303 2.73907543 -12.33485077 2.18177565 -11 1.625 C-10.04855103 1.21290283 -10.04855103 1.21290283 -9.07788086 0.79248047 C-5.72645845 -0.58891255 -3.42107881 -1.52961697 0 0 Z " fill="#C55B88" transform="translate(279,150)"/>
<path d="M0 0 C7.71154246 4.03488104 14.98957446 8.48796055 22.1875 13.375 C23.13947266 14.01566406 24.09144531 14.65632813 25.07226562 15.31640625 C27.38443575 16.87334493 29.69358508 18.4345542 32 20 C25.00159379 27.30649639 12.56229407 30.32801533 3 33 C1.68 33 0.36 33 -1 33 C-1.02465392 28.46102295 -1.04283789 23.92208457 -1.05493164 19.38305664 C-1.0599714 17.83780234 -1.0668032 16.29255284 -1.07543945 14.74731445 C-1.08752076 12.53074971 -1.09323173 10.31424782 -1.09765625 8.09765625 C-1.10281754 7.4028566 -1.10797882 6.70805695 -1.11329651 5.99220276 C-1.11349277 4.3277067 -1.06189129 2.66334501 -1 1 C-0.67 0.67 -0.34 0.34 0 0 Z " fill="#C35A87" transform="translate(58,73)"/>
<path d="M0 0 C0 9.9 0 19.8 0 30 C-7 33 -7 33 -10 33 C-11.80932617 30.796875 -11.80932617 30.796875 -13.79296875 27.75 C-14.8612793 26.12578125 -14.8612793 26.12578125 -15.95117188 24.46875 C-16.69683979 23.31264523 -17.44227956 22.15639327 -18.1875 21 C-18.94370657 19.84312526 -19.70085662 18.68686665 -20.45898438 17.53125 C-22.31538444 14.69344098 -24.16182241 11.84963315 -26 9 C-22.55994764 5.13207364 -18.32439665 3.97836577 -13.5625 2.25 C-12.27375977 1.75693359 -12.27375977 1.75693359 -10.95898438 1.25390625 C-10.12818359 0.94839844 -9.29738281 0.64289063 -8.44140625 0.328125 C-7.68545166 0.0487207 -6.92949707 -0.23068359 -6.15063477 -0.51855469 C-4 -1 -4 -1 0 0 Z " fill="#C45B88" transform="translate(280,114)"/>
<path d="M0 0 C4.8199758 1.32302297 8.93541164 3.61199093 13.3046875 6.00390625 C14.18382813 6.47634766 15.06296875 6.94878906 15.96875 7.43554688 C18.12664274 8.59658699 20.27996458 9.76532893 22.4296875 10.94140625 C20.76351905 16.20354586 17.49900381 20.33300212 14.3046875 24.75390625 C13.74136719 25.54216797 13.17804688 26.33042969 12.59765625 27.14257812 C11.21291092 29.07887456 9.82350123 31.01163266 8.4296875 32.94140625 C7.31996057 32.00455991 6.21229036 31.06527702 5.10546875 30.125 C4.48841064 29.60220459 3.87135254 29.07940918 3.2355957 28.54077148 C-2.49150217 23.46868576 -5.22910434 18.68785541 -5.7890625 10.8984375 C-5.96558261 4.74229874 -5.96558261 4.74229874 -5.5703125 1.94140625 C-2.5703125 -0.05859375 -2.5703125 -0.05859375 0 0 Z " fill="#C65B89" transform="translate(58.5703125,253.05859375)"/>
<path d="M0 0 C4.31928726 3.79214624 6.53838614 9.17469004 9.20776367 14.16992188 C10.18657058 15.9982639 11.17762673 17.81957556 12.16992188 19.640625 C12.78802734 20.79046875 13.40613281 21.9403125 14.04296875 23.125 C14.61039795 24.17945312 15.17782715 25.23390625 15.76245117 26.3203125 C17 29 17 29 17 32 C12.74872014 34.71709118 9.05539847 36.50258127 4 37 C-1.77981097 34.6669893 -6.45619196 30.15415921 -11 26 C-8.34810503 16.88411104 -4.1194169 8.5225941 0 0 Z " fill="#C45B88" transform="translate(91,55)"/>
<path d="M0 0 C0.66 0.33 1.32 0.66 2 1 C2 15.52 2 30.04 2 45 C-3.44522924 43.63869269 -5.92877125 40.58581552 -9.8125 36.6875 C-10.51826172 36.01009766 -11.22402344 35.33269531 -11.95117188 34.63476562 C-12.61310547 33.97541016 -13.27503906 33.31605469 -13.95703125 32.63671875 C-14.56522705 32.03561279 -15.17342285 31.43450684 -15.80004883 30.81518555 C-17 29 -17 29 -16.89916992 27.12304688 C-15.72912049 24.36042135 -14.25714864 21.9332604 -12.65625 19.39453125 C-11.65271484 17.79641602 -11.65271484 17.79641602 -10.62890625 16.16601562 C-9.92636719 15.05935547 -9.22382813 13.95269531 -8.5 12.8125 C-7.78989897 11.68323536 -7.08025846 10.553681 -6.37109375 9.42382812 C-1.16791102 1.16791102 -1.16791102 1.16791102 0 0 Z " fill="#C65B89" transform="translate(278,55)"/>
<path d="M0 0 C3.27957731 0.62054747 5.41036005 1.78018337 8.109375 3.72265625 C8.86347656 4.26083984 9.61757812 4.79902344 10.39453125 5.35351562 C11.17183594 5.91748047 11.94914063 6.48144531 12.75 7.0625 C13.93916016 7.91424805 13.93916016 7.91424805 15.15234375 8.78320312 C17.10555025 10.18339333 19.05451502 11.58911094 21 13 C20.37954537 17.23322844 18.89476441 20.52290295 16.9375 24.3125 C16.38964844 25.38113281 15.84179688 26.44976562 15.27734375 27.55078125 C14.85582031 28.35902344 14.43429688 29.16726562 14 30 C9.85634402 29.40947898 7.16608208 27.15783311 3.875 24.6875 C2.82054687 23.90761719 1.76609375 23.12773437 0.6796875 22.32421875 C-2.87587218 19.24031494 -3.83180426 17.42966382 -4.375 12.8125 C-3.89963288 7.979601 -2.18010699 4.29208564 0 0 Z " fill="#C45B88" transform="translate(149,224)"/>
<path d="M0 0 C6.08392001 0.98736321 11.23191887 3.73444584 16.75 6.375 C17.81605469 6.87 18.88210937 7.365 19.98046875 7.875 C20.99238281 8.35710937 22.00429687 8.83921875 23.046875 9.3359375 C24.43664551 9.99408447 24.43664551 9.99408447 25.85449219 10.66552734 C28 12 28 12 29 15 C28.04370117 17.06884766 28.04370117 17.06884766 26.54296875 19.4140625 C25.73956055 20.67863281 25.73956055 20.67863281 24.91992188 21.96875 C24.34822266 22.8453125 23.77652344 23.721875 23.1875 24.625 C22.34735352 25.95144531 22.34735352 25.95144531 21.49023438 27.3046875 C17.28378211 33.85810894 17.28378211 33.85810894 15 35 C12.85897547 30.33909589 10.72285932 25.67598655 8.59130859 21.01074219 C7.86512378 19.42320795 7.13758924 17.83629041 6.40869141 16.25 C5.36267346 13.97295413 4.32149146 11.69375197 3.28125 9.4140625 C2.95314331 8.70255035 2.62503662 7.99103821 2.2869873 7.25796509 C0 2.22774341 0 2.22774341 0 0 Z " fill="#C55B88" transform="translate(219,264)"/>
<path d="M0 0 C2.86945665 1.48586198 3.19118617 3.43032456 4.23632812 6.43286133 C4.62949219 7.5440332 5.02265625 8.65520508 5.42773438 9.80004883 C5.82347656 10.97051758 6.21921875 12.14098633 6.62695312 13.34692383 C7.03816406 14.5096582 7.449375 15.67239258 7.87304688 16.87036133 C10.87695312 25.49286963 10.87695312 25.49286963 10.87695312 28.97192383 C6.87125116 28.37790003 3.96625979 27.11008821 0.46289062 25.10083008 C-1.04917969 24.23941406 -1.04917969 24.23941406 -2.59179688 23.3605957 C-3.63335937 22.75795898 -4.67492187 22.15532227 -5.74804688 21.53442383 C-6.79734375 20.9356543 -7.84664062 20.33688477 -8.92773438 19.7199707 C-16.52074033 15.37346153 -16.52074033 15.37346153 -20.12304688 12.97192383 C-20.12304688 11.98192383 -20.12304688 10.99192383 -20.12304688 9.97192383 C-17.21770123 8.2643413 -14.29721269 6.58454029 -11.37304688 4.90942383 C-10.13554688 4.18142578 -10.13554688 4.18142578 -8.87304688 3.4387207 C-8.07382813 2.98432617 -7.27460937 2.52993164 -6.45117188 2.06176758 C-5.71801758 1.63758545 -4.98486328 1.21340332 -4.22949219 0.77636719 C-2.12304688 -0.02807617 -2.12304688 -0.02807617 0 0 Z " fill="#E2C1CB" transform="translate(85.123046875,238.028076171875)"/>
<path d="M0 0 C5.68502535 1.64566523 10.76681636 4.29032784 16 7 C10.67931678 14.83509893 3.91674694 22.72216871 -4 28 C-5.9375 28.265625 -5.9375 28.265625 -8 28.25 C-9.0209375 28.25773437 -9.0209375 28.25773437 -10.0625 28.265625 C-12 28 -12 28 -15 26 C-13.35106355 21.23019512 -10.76298642 17.22413749 -8.0625 13 C-7.1780186 11.60439907 -6.29389552 10.20857098 -5.41015625 8.8125 C-4.99523926 8.15894531 -4.58032227 7.50539063 -4.15283203 6.83203125 C-2.73294665 4.57561026 -1.35774545 2.29427614 0 0 Z " fill="#C35A87" transform="translate(252,278)"/>
<path d="M0 0 C10.125 6.75 10.125 6.75 13.5625 9.375 C14.22378906 9.87773438 14.88507813 10.38046875 15.56640625 10.8984375 C16.03949219 11.26195313 16.51257813 11.62546875 17 12 C16.28246419 17.04552955 13.10035897 19.40280336 9.24609375 22.41796875 C3.12643475 25.40047404 -3.48806732 24.35411684 -10 23 C-10.66 22.34 -11.32 21.68 -12 21 C-8.04 14.07 -4.08 7.14 0 0 Z " fill="#E3C2CC" transform="translate(236,69)"/>
<path d="M0 0 C0.83265381 0.00523682 1.66530762 0.01047363 2.52319336 0.01586914 C3.42231445 0.0190918 4.32143555 0.02231445 5.24780273 0.02563477 C6.66609375 0.03820312 6.66609375 0.03820312 8.11303711 0.05102539 C9.06243164 0.05553711 10.01182617 0.06004883 10.98999023 0.06469727 C13.34356776 0.07652429 15.69702188 0.09300514 18.05053711 0.11352539 C17.59555674 4.39393282 17.17701978 6.68085985 13.80053711 9.42602539 C12.24029636 10.68437508 10.65322153 11.90969908 9.05053711 13.11352539 C8.53249512 13.50572266 8.01445312 13.89791992 7.48071289 14.30200195 C5.78812629 15.57107213 4.07988166 16.81500444 2.36303711 18.05102539 C1.81679687 18.45297119 1.27055664 18.85491699 0.70776367 19.26904297 C-2.6317725 21.60113548 -4.86599129 22.60596631 -8.94946289 22.11352539 C-10.79370129 16.96587097 -8.76533064 13.51284779 -6.57446289 8.86352539 C-6.24446289 8.13133789 -5.91446289 7.39915039 -5.57446289 6.64477539 C-2.61681992 0.15238839 -2.61681992 0.15238839 0 0 Z " fill="#C45B88" transform="translate(174.949462890625,235.886474609375)"/>
<path d="M0 0 C0.66 0.33 1.32 0.66 2 1 C2.68603516 3.36083984 2.68603516 3.36083984 3.2890625 6.4609375 C3.50820312 7.57210937 3.72734375 8.68328125 3.953125 9.828125 C4.17484375 10.99859375 4.3965625 12.1690625 4.625 13.375 C4.96917969 15.11910156 4.96917969 15.11910156 5.3203125 16.8984375 C7 25.53683036 7 25.53683036 7 29 C0.49481708 28.60068632 -3.57278199 26.96033634 -9 23.4375 C-9.67933594 23.01275391 -10.35867187 22.58800781 -11.05859375 22.15039062 C-12.71377499 21.1129883 -14.35808118 20.05826799 -16 19 C-14.66000502 15.993182 -13.20154709 14.00237391 -10.8125 11.75 C-6.97039818 8.02897282 -3.47298736 4.06413414 0 0 Z " fill="#A0A0BE" transform="translate(114,193)"/>
<path d="M0 0 C0.33 0.66 0.66 1.32 1 2 C2.66626597 2.66766755 4.33300785 3.33414761 6 4 C7.70933749 5.20691241 9.41758299 6.41537221 11.125 7.625 C16.82636798 11.04582079 21.5181103 11.64862712 28.125 11.625 C28.96691895 11.62322754 29.80883789 11.62145508 30.67626953 11.61962891 C33.33549097 11.57108525 33.33549097 11.57108525 37 11 C37.66 10.01 38.32 9.02 39 8 C40.49821059 11.37097383 41 13.20442119 41 17 C34.73 17.33 28.46 17.66 22 18 C19.78518982 23.08493274 19.78518982 23.08493274 17.57275391 28.17089844 C17.29351074 28.8105957 17.01426758 29.45029297 16.7265625 30.109375 C16.30238037 31.08342285 16.30238037 31.08342285 15.86962891 32.07714844 C14.96411991 34.07933508 13.99481594 36.04086056 13 38 C12.01 37.01 11.02 36.02 10 35 C10.66 35 11.32 35 12 35 C12.2475 34.175 12.495 33.35 12.75 32.5 C13.97389235 29.07310143 15.47012012 26.02426678 17.1953125 22.83203125 C18.20107487 20.87570719 18.20107487 20.87570719 18 18 C16.2158414 16.36154565 16.2158414 16.36154565 13.84375 14.86328125 C12.98652344 14.28642578 12.12929687 13.70957031 11.24609375 13.11523438 C10.33988281 12.52033203 9.43367187 11.92542969 8.5 11.3125 C7.59378906 10.70599609 6.68757812 10.09949219 5.75390625 9.47460938 C3.50856326 7.97377485 1.25725909 6.48282711 -1 5 C-0.67 3.35 -0.34 1.7 0 0 Z " fill="#3F2331" transform="translate(151,219)"/>
<path d="M0 0 C12.86774125 12.34760408 12.86774125 12.34760408 13.06640625 19.3359375 C12.5 21.25 12.5 21.25 11 24 C8 24 8 24 5.765625 22.0234375 C4.93546875 21.14945313 4.1053125 20.27546875 3.25 19.375 C-0.67237485 15.32609693 -4.65627761 11.58829241 -9 8 C-7.82255415 4.46766245 -7.04394359 4.13691925 -3.9375 2.3125 C-3.20402344 1.87550781 -2.47054687 1.43851563 -1.71484375 0.98828125 C-1.14894531 0.66214844 -0.58304688 0.33601562 0 0 Z " fill="#E3C1CB" transform="translate(103,152)"/>
<path d="M0 0 C0.66 0.33 1.32 0.66 2 1 C-1.465 8.425 -1.465 8.425 -5 16 C-7.90408342 12.12788877 -8.85079464 9.59682146 -10 5 C-8.38007835 4.13624104 -6.75388139 3.28424146 -5.125 2.4375 C-4.22007813 1.96183594 -3.31515625 1.48617188 -2.3828125 0.99609375 C-1.20332031 0.50302734 -1.20332031 0.50302734 0 0 Z " fill="#BF5884" transform="translate(114,267)"/>
</svg>
